<?xml version="1.0" encoding="UTF-8" standalone="no"?>
<!DOCTYPE svg PUBLIC "-//W3C//DTD SVG 1.1//EN"
 "http://www.w3.org/Graphics/SVG/1.1/DTD/svg11.dtd">
<!-- Generated by graphviz version 2.40.1 (20161225.0304)
 -->
<!-- Title: G Pages: 1 -->
<svg width="108pt" height="196pt"
 viewBox="0.00 0.00 107.71 195.98" xmlns="http://www.w3.org/2000/svg" xmlns:xlink="http://www.w3.org/1999/xlink">
<g id="graph0" class="graph" transform="scale(1 1) rotate(0) translate(7.992 187.992)">
<title>G</title>
<polygon fill="#000000" stroke="transparent" points="-7.992,7.992 -7.992,-187.992 99.7202,-187.992 99.7202,7.992 -7.992,7.992"/>
<!-- config.js -->
<g id="node1" class="node">
<title>config.js</title>
<ellipse fill="none" stroke="#ff6c60" cx="45.8641" cy="-90" rx="45.1706" ry="18"/>
<text text-anchor="middle" x="45.8641" y="-86.8493" font-family="Arial" font-size="14.00" fill="#ff6c60">config.js</text>
</g>
<!-- logger.js -->
<g id="node2" class="node">
<title>logger.js</title>
<ellipse fill="none" stroke="#ff6c60" cx="45.8641" cy="-18" rx="45.7286" ry="18"/>
<text text-anchor="middle" x="45.8641" y="-14.8493" font-family="Arial" font-size="14.00" fill="#ff6c60">logger.js</text>
</g>
<!-- config.js&#45;&gt;logger.js -->
<g id="edge1" class="edge">
<title>config.js&#45;&gt;logger.js</title>
<path fill="none" stroke="#757575" d="M39.9117,-71.8314C39.1497,-64.0125 38.9337,-54.6923 39.2636,-46.0221"/>
<polygon fill="#757575" stroke="#757575" points="42.7645,-46.1239 39.9368,-35.9134 35.78,-45.6587 42.7645,-46.1239"/>
</g>
<!-- logger.js&#45;&gt;config.js -->
<g id="edge2" class="edge">
<title>logger.js&#45;&gt;config.js</title>
<path fill="none" stroke="#757575" d="M51.7914,-35.9134C52.5652,-43.6993 52.7932,-53.01 52.4752,-61.6941"/>
<polygon fill="#757575" stroke="#757575" points="48.9723,-61.6254 51.8165,-71.8314 55.9576,-62.0794 48.9723,-61.6254"/>
</g>
<!-- main.js -->
<g id="node3" class="node">
<title>main.js</title>
<ellipse fill="none" stroke="#c6c5fe" cx="45.8641" cy="-162" rx="40.7293" ry="18"/>
<text text-anchor="middle" x="45.8641" y="-158.8493" font-family="Arial" font-size="14.00" fill="#c6c5fe">main.js</text>
</g>
<!-- main.js&#45;&gt;config.js -->
<g id="edge3" class="edge">
<title>main.js&#45;&gt;config.js</title>
<path fill="none" stroke="#757575" d="M45.8641,-143.8314C45.8641,-136.131 45.8641,-126.9743 45.8641,-118.4166"/>
<polygon fill="#757575" stroke="#757575" points="49.3642,-118.4132 45.8641,-108.4133 42.3642,-118.4133 49.3642,-118.4132"/>
</g>
</g>
</svg>
