<?xml version="1.0" encoding="UTF-8" standalone="no"?>
<!DOCTYPE svg PUBLIC "-//W3C//DTD SVG 1.1//EN"
 "http://www.w3.org/Graphics/SVG/1.1/DTD/svg11.dtd">
<!-- Generated by graphviz version 2.40.1 (20161225.0304)
 -->
<!-- Title: G Pages: 1 -->
<svg width="135pt" height="340pt"
 viewBox="0.00 0.00 134.98 339.98" xmlns="http://www.w3.org/2000/svg" xmlns:xlink="http://www.w3.org/1999/xlink">
<g id="graph0" class="graph" transform="scale(1 1) rotate(0) translate(7.992 331.992)">
<title>G</title>
<polygon fill="#000000" stroke="transparent" points="-7.992,7.992 -7.992,-331.992 126.992,-331.992 126.992,7.992 -7.992,7.992"/>
<!-- a.js -->
<g id="node1" class="node">
<title>a.js</title>
<ellipse fill="none" stroke="#c6c5fe" cx="82" cy="-306" rx="27" ry="18"/>
<text text-anchor="middle" x="82" y="-302.8493" font-family="Arial" font-size="14.00" fill="#c6c5fe">a.js</text>
</g>
<!-- b.js -->
<g id="node2" class="node">
<title>b.js</title>
<ellipse fill="none" stroke="#ff6c60" cx="82" cy="-234" rx="27" ry="18"/>
<text text-anchor="middle" x="82" y="-230.8493" font-family="Arial" font-size="14.00" fill="#ff6c60">b.js</text>
</g>
<!-- a.js&#45;&gt;b.js -->
<g id="edge1" class="edge">
<title>a.js&#45;&gt;b.js</title>
<path fill="none" stroke="#757575" d="M82,-287.8314C82,-280.131 82,-270.9743 82,-262.4166"/>
<polygon fill="#757575" stroke="#757575" points="85.5001,-262.4132 82,-252.4133 78.5001,-262.4133 85.5001,-262.4132"/>
</g>
<!-- c.js -->
<g id="node3" class="node">
<title>c.js</title>
<ellipse fill="none" stroke="#ff6c60" cx="27" cy="-162" rx="27" ry="18"/>
<text text-anchor="middle" x="27" y="-158.8493" font-family="Arial" font-size="14.00" fill="#ff6c60">c.js</text>
</g>
<!-- b.js&#45;&gt;c.js -->
<g id="edge2" class="edge">
<title>b.js&#45;&gt;c.js</title>
<path fill="none" stroke="#757575" d="M69.5196,-217.6621C62.4876,-208.4564 53.5653,-196.7764 45.7117,-186.4953"/>
<polygon fill="#757575" stroke="#757575" points="48.2828,-184.0953 39.431,-178.2733 42.72,-188.3446 48.2828,-184.0953"/>
</g>
<!-- d.js -->
<g id="node4" class="node">
<title>d.js</title>
<ellipse fill="none" stroke="#ff6c60" cx="65" cy="-90" rx="27" ry="18"/>
<text text-anchor="middle" x="65" y="-86.8493" font-family="Arial" font-size="14.00" fill="#ff6c60">d.js</text>
</g>
<!-- c.js&#45;&gt;d.js -->
<g id="edge3" class="edge">
<title>c.js&#45;&gt;d.js</title>
<path fill="none" stroke="#757575" d="M36.0055,-144.937C40.4828,-136.4537 45.9952,-126.0092 51.007,-116.513"/>
<polygon fill="#757575" stroke="#757575" points="54.2229,-117.9182 55.7952,-107.4407 48.0322,-114.6509 54.2229,-117.9182"/>
</g>
<!-- d.js&#45;&gt;b.js -->
<g id="edge4" class="edge">
<title>d.js&#45;&gt;b.js</title>
<path fill="none" stroke="#757575" d="M67.1454,-108.1727C70.0482,-132.7613 75.2555,-176.8705 78.6693,-205.7871"/>
<polygon fill="#757575" stroke="#757575" points="75.2329,-206.5328 79.8813,-216.0535 82.1847,-205.712 75.2329,-206.5328"/>
</g>
<!-- e.js -->
<g id="node5" class="node">
<title>e.js</title>
<ellipse fill="none" stroke="#ff6c60" cx="92" cy="-18" rx="27" ry="18"/>
<text text-anchor="middle" x="92" y="-14.8493" font-family="Arial" font-size="14.00" fill="#ff6c60">e.js</text>
</g>
<!-- d.js&#45;&gt;e.js -->
<g id="edge5" class="edge">
<title>d.js&#45;&gt;e.js</title>
<path fill="none" stroke="#757575" d="M71.6742,-72.2022C74.7476,-64.0064 78.4616,-54.1024 81.8695,-45.0145"/>
<polygon fill="#757575" stroke="#757575" points="85.1685,-46.1853 85.4026,-35.593 78.6142,-43.7274 85.1685,-46.1853"/>
</g>
<!-- e.js&#45;&gt;b.js -->
<g id="edge6" class="edge">
<title>e.js&#45;&gt;b.js</title>
<path fill="none" stroke="#757575" d="M95.7474,-35.9069C97.7466,-46.3759 99.9966,-59.8759 101,-72 104.9031,-119.1604 95.6145,-173.7807 88.6933,-206.0262"/>
<polygon fill="#757575" stroke="#757575" points="85.2161,-205.5392 86.4593,-216.0608 92.0488,-207.0603 85.2161,-205.5392"/>
</g>
</g>
</svg>
